<svg width="32" height="32" viewBox="0 0 32 32" fill="none" xmlns="http://www.w3.org/2000/svg">
<path d="M14.5333 2.80029C8.40001 3.46696 3.46668 8.40029 2.80001 14.4003C2.13335 20.667 5.73334 26.267 11.2 28.4003C11.6 28.5336 12 28.267 12 27.7336V25.6003C12 25.6003 11.4667 25.7336 10.8 25.7336C8.93335 25.7336 8.13335 24.1336 8.00001 23.2003C7.86668 22.667 7.60001 22.267 7.20001 21.867C6.80001 21.7336 6.66668 21.7336 6.66668 21.6003C6.66668 21.3336 7.06668 21.3336 7.20001 21.3336C8.00001 21.3336 8.66668 22.267 8.93334 22.667C9.60001 23.7336 10.4 24.0003 10.8 24.0003C11.3333 24.0003 11.7333 23.867 12 23.7336C12.1333 22.8003 12.5333 21.867 13.3333 21.3336C10.2667 20.667 8.00001 18.9336 8.00001 16.0003C8.00001 14.5336 8.66668 13.067 9.60001 12.0003C9.46668 11.7336 9.33334 11.067 9.33334 10.1336C9.33334 9.60029 9.33335 8.80029 9.73335 8.00029C9.73335 8.00029 11.6 8.0003 13.4667 9.73363C14.1333 9.46696 15.0667 9.33363 16 9.33363C16.9333 9.33363 17.8667 9.46696 18.6667 9.73363C20.4 8.0003 22.4 8.00029 22.4 8.00029C22.6667 8.80029 22.6667 9.60029 22.6667 10.1336C22.6667 11.2003 22.5333 11.7336 22.4 12.0003C23.3333 13.067 24 14.4003 24 16.0003C24 18.9336 21.7333 20.667 18.6667 21.3336C19.4667 22.0003 20 23.2003 20 24.4003V27.867C20 28.267 20.4 28.667 20.9333 28.5336C25.8667 26.5336 29.3333 21.7336 29.3333 16.1336C29.3333 8.13363 22.5333 1.86696 14.5333 2.80029Z" fill="#FFFFFE"/>
</svg>
